<?xml version="1.0" standalone="no"?>
<!DOCTYPE svg PUBLIC "-//W3C//DTD SVG 20010904//EN"
 "http://www.w3.org/TR/2001/REC-SVG-20010904/DTD/svg10.dtd">
<svg version="1.0" xmlns="http://www.w3.org/2000/svg"
 width="512.000000pt" height="512.000000pt" viewBox="0 0 512.000000 512.000000"
 preserveAspectRatio="xMidYMid meet">
<metadata>
Created by potrace 1.14, written by Peter Selinger 2001-2017
</metadata>
<g transform="translate(0.000000,512.000000) scale(0.100000,-0.100000)"
fill="#000000" stroke="none">
<path d="M0 2560 l1 -2560 2559 0 2559 0 1 2560 0 2560 -2560 0 -2560 0 0
-2560z m3103 1593 c-13 -2 -33 -2 -45 0 -13 2 -3 4 22 4 25 0 35 -2 23 -4z
m240 0 c-13 -2 -33 -2 -45 0 -13 2 -3 4 22 4 25 0 35 -2 23 -4z m-330 -10 c-7
-2 -21 -2 -30 0 -10 3 -4 5 12 5 17 0 24 -2 18 -5z m410 0 c-7 -2 -21 -2 -30
0 -10 3 -4 5 12 5 17 0 24 -2 18 -5z m-470 -10 c-7 -2 -19 -2 -25 0 -7 3 -2 5
12 5 14 0 19 -2 13 -5z m520 0 c-7 -2 -19 -2 -25 0 -7 3 -2 5 12 5 14 0 19 -2
13 -5z m-566 -9 c-3 -3 -12 -4 -19 -1 -8 3 -5 6 6 6 11 1 17 -2 13 -5z m610 0
c-3 -3 -12 -4 -19 -1 -8 3 -5 6 6 6 11 1 17 -2 13 -5z m-696 -25 c-30 -10 -56
-17 -58 -15 -5 5 77 34 97 34 8 1 -9 -8 -39 -19z m754 11 c13 -5 14 -9 5 -9
-8 0 -24 4 -35 9 -13 5 -14 9 -5 9 8 0 24 -4 35 -9z m85 -30 c8 -5 11 -10 5
-10 -5 0 -17 5 -25 10 -8 5 -10 10 -5 10 6 0 17 -5 25 -10z m-969 -30 c-35
-17 -66 -30 -70 -29 -10 1 113 59 124 59 6 -1 -19 -14 -54 -30z m1019 10 c8
-5 11 -10 5 -10 -5 0 -17 5 -25 10 -8 5 -10 10 -5 10 6 0 17 -5 25 -10z m106
-51 c30 -17 54 -33 54 -35 0 -5 -105 51 -119 63 -18 14 21 -3 65 -28z m-1206
7 c0 -2 -15 -13 -33 -24 -19 -11 -46 -27 -60 -37 -15 -9 -27 -15 -27 -12 0 5
110 77 117 77 2 0 3 -2 3 -4z m1390 -131 c69 -55 157 -143 211 -210 48 -60
122 -176 116 -182 -3 -3 -15 13 -26 35 -58 114 -244 315 -365 396 -31 20 -56
39 -56 42 0 8 52 -27 120 -81z m-1520 51 c0 -2 -24 -22 -54 -44 -72 -55 -174
-157 -232 -234 -52 -69 -72 -92 -59 -68 40 72 182 226 281 303 59 47 64 50 64
43z m-369 -398 c-11 -18 -28 -34 -38 -35 -13 -1 -13 0 -2 3 8 3 23 18 33 34 9
17 20 30 23 30 3 0 -4 -15 -16 -32z m-273 -25 c-10 -2 -28 -2 -40 0 -13 2 -5
4 17 4 22 1 32 -1 23 -4z m200 0 c-10 -2 -28 -2 -40 0 -13 2 -5 4 17 4 22 1
32 -1 23 -4z m-275 -10 c-7 -2 -21 -2 -30 0 -10 3 -4 5 12 5 17 0 24 -2 18 -5z
m-56 -9 c-3 -3 -12 -4 -19 -1 -8 3 -5 6 6 6 11 1 17 -2 13 -5z m-97 -29 c-35
-13 -66 -22 -68 -20 -5 5 100 44 118 44 8 0 -14 -11 -50 -24z m2750 -29 c0
-12 -5 -7 -19 24 -11 24 -11 24 3 6 9 -11 16 -24 16 -30z m-2915 -47 c-39 -22
-78 -48 -87 -56 -10 -9 -18 -12 -18 -7 0 11 148 104 165 104 5 0 -22 -18 -60
-41z m2944 -24 c0 -5 -6 1 -14 15 -8 14 -14 30 -14 35 0 6 6 -1 14 -15 8 -14
14 -29 14 -35z m21 -50 c0 -5 -5 -3 -10 5 -5 8 -10 20 -10 25 0 6 5 3 10 -5 5
-8 10 -19 10 -25z m-3084 -4 c-4 -5 -30 -28 -59 -51 l-52 -42 55 51 c55 51 66
59 56 42z m3113 -91 c0 -9 -4 -8 -9 5 -5 11 -9 27 -9 35 0 9 4 8 9 -5 5 -11 9
-27 9 -35z m-3261 -63 c-24 -29 -51 -63 -61 -77 -16 -21 -16 -20 1 8 20 35 90
122 98 122 2 0 -15 -24 -38 -53z m3269 21 c-3 -8 -6 -5 -6 6 -1 11 2 17 5 13
3 -3 4 -12 1 -19z m10 -50 c-3 -7 -5 -2 -5 12 0 14 2 19 5 13 2 -7 2 -19 0
-25z m10 -55 c-3 -10 -5 -4 -5 12 0 17 2 24 5 18 2 -7 2 -21 0 -30z m-3399
-88 c-18 -35 -34 -63 -36 -61 -4 5 56 126 63 126 3 0 -10 -29 -27 -65z m3409
-7 c-2 -13 -4 -3 -4 22 0 25 2 35 4 23 2 -13 2 -33 0 -45z m-3599 -105 c-10
-2 -28 -2 -40 0 -13 2 -5 4 17 4 22 1 32 -1 23 -4z m139 1 c-3 -3 -12 -4 -19
-1 -8 3 -5 6 6 6 11 1 17 -2 13 -5z m-224 -11 c-7 -2 -19 -2 -25 0 -7 3 -2 5
12 5 14 0 19 -2 13 -5z m-46 -9 c-3 -3 -12 -4 -19 -1 -8 3 -5 6 6 6 11 1 17
-2 13 -5z m-52 -14 c-11 -5 -27 -9 -35 -9 -9 0 -8 4 5 9 11 5 27 9 35 9 9 0 8
-4 -5 -9z m3810 -28 c-6 -8 -35 12 -35 24 0 11 4 10 18 -3 10 -10 18 -19 17
-21z m-3875 8 c-8 -5 -19 -10 -25 -10 -5 0 -3 5 5 10 8 5 20 10 25 10 6 0 3
-5 -5 -10z m-105 -48 c-104 -56 -162 -98 -241 -176 -78 -79 -120 -137 -176
-241 -43 -80 -52 -81 -12 -2 65 128 197 281 309 358 59 40 166 99 180 99 6 -1
-21 -17 -60 -38z m4065 8 c33 -17 60 -33 60 -35 0 -5 -119 52 -129 61 -13 12
16 1 69 -26z m207 -140 c41 -34 73 -64 70 -66 -2 -2 -21 12 -43 33 -21 20 -66
56 -99 81 -71 52 -83 64 -36 35 19 -11 67 -49 108 -83z m191 -227 c23 -38 44
-77 47 -88 4 -11 -6 3 -22 30 -46 79 -80 131 -114 172 -28 34 -27 33 9 -4 22
-24 58 -73 80 -110z m97 -218 c3 -16 -6 -1 -19 35 -14 36 -25 67 -25 70 1 11
38 -77 44 -105z m-5024 58 c-12 -20 -14 -14 -5 12 4 9 9 14 11 11 3 -2 0 -13
-6 -23z m-17 -57 c-3 -15 -8 -25 -11 -23 -2 3 -1 17 3 31 3 15 8 25 11 23 2
-3 1 -17 -3 -31z m-17 -58 c-3 -8 -6 -5 -6 6 -1 11 2 17 5 13 3 -3 4 -12 1
-19z m5070 0 c-3 -8 -6 -5 -6 6 -1 11 2 17 5 13 3 -3 4 -12 1 -19z m-5080 -50
c-3 -7 -5 -2 -5 12 0 14 2 19 5 13 2 -7 2 -19 0 -25z m5090 -5 c-3 -10 -5 -4
-5 12 0 17 2 24 5 18 2 -7 2 -21 0 -30z m-5090 -355 c-3 -7 -5 -2 -5 12 0 14
2 19 5 13 2 -7 2 -19 0 -25z m5090 0 c-3 -7 -5 -2 -5 12 0 14 2 19 5 13 2 -7
2 -19 0 -25z m-5080 -40 c-3 -8 -6 -5 -6 6 -1 11 2 17 5 13 3 -3 4 -12 1 -19z
m5070 0 c-3 -8 -6 -5 -6 6 -1 11 2 17 5 13 3 -3 4 -12 1 -19z m-5048 -68 c0
-9 -4 -8 -9 5 -5 11 -9 27 -9 35 0 9 4 8 9 -5 5 -11 9 -27 9 -35z m5038 28
c-3 -8 -6 -5 -6 6 -1 11 2 17 5 13 3 -3 4 -12 1 -19z m-18 -57 c-6 -18 -13
-30 -15 -28 -2 2 1 18 7 36 6 18 13 30 15 28 2 -2 -1 -18 -7 -36z m-4999 -26
c0 -5 -5 -3 -10 5 -5 8 -10 20 -10 25 0 6 5 3 10 -5 5 -8 10 -19 10 -25z m98
-185 l24 -35 -26 30 c-26 30 -96 156 -96 171 0 5 17 -23 38 -61 20 -39 47 -86
60 -105z m4856 108 c-90 -178 -253 -342 -431 -432 -79 -40 -78 -31 2 12 104
55 162 98 241 176 72 72 153 185 188 264 11 23 21 40 23 38 2 -2 -8 -28 -23
-58z m-4619 -349 c28 -18 82 -51 120 -71 80 -43 81 -52 2 -12 -112 57 -241
160 -309 247 -18 23 5 3 52 -44 47 -47 108 -101 135 -120z m225 -119 c8 -5 11
-10 5 -10 -5 0 -17 5 -25 10 -8 5 -10 10 -5 10 6 0 17 -5 25 -10z m3880 0 c-8
-5 -19 -10 -25 -10 -5 0 -3 5 5 10 8 5 20 10 25 10 6 0 3 -5 -5 -10z m-3815
-20 c13 -5 14 -9 5 -9 -8 0 -24 4 -35 9 -13 5 -14 9 -5 9 8 0 24 -4 35 -9z
m3760 0 c-11 -5 -27 -9 -35 -9 -9 0 -8 4 5 9 11 5 27 9 35 9 9 0 8 -4 -5 -9z
m-3708 -16 c-3 -3 -12 -4 -19 -1 -8 3 -5 6 6 6 11 1 17 -2 13 -5z m3650 0 c-3
-3 -12 -4 -19 -1 -8 3 -5 6 6 6 11 1 17 -2 13 -5z m-3604 -11 c-7 -2 -19 -2
-25 0 -7 3 -2 5 12 5 14 0 19 -2 13 -5z m3560 0 c-7 -2 -19 -2 -25 0 -7 3 -2
5 12 5 14 0 19 -2 13 -5z m-3475 -10 c-10 -2 -28 -2 -40 0 -13 2 -5 4 17 4 22
1 32 -1 23 -4z m3410 0 c-10 -2 -28 -2 -40 0 -13 2 -5 4 17 4 22 1 32 -1 23
-4z"/>
</g>
</svg>
